<svg xmlns="http://www.w3.org/2000/svg"
  xmlns:xlink="http://www.w3.org/1999/xlink" width="1080" height="1920" viewBox="0 0 1080 1920">
  <defs>
    <clipPath id="clip-path">
      <rect id="Rectangle_47" data-name="Rectangle 47" width="1080" height="1920" transform="translate(0)" fill="none"/>
    </clipPath>
  </defs>
  <g id="Group_127" data-name="Group 127">
    <g id="Group_114" data-name="Group 114" clip-path="url(#clip-path)">
      <g id="Group_113" data-name="Group 113">
        <g id="Group_108" data-name="Group 108">
          <path id="Path_910" data-name="Path 910" d="M90,1570.909h90v-87.274C130.3,1483.635,90,1522.71,90,1570.909Z" fill="#001937"/>
          <path id="Path_911" data-name="Path 911" d="M0,1309.089c49.7,0,90-39.07,90-87.271H0Z" fill="#001937"/>
          <path id="Path_912" data-name="Path 912" d="M180,1309.089c49.705,0,90-39.07,90-87.271H180Z" fill="#001937"/>
          <path id="Path_913" data-name="Path 913" d="M90,1221.818h90v-87.274C130.3,1134.544,90,1173.619,90,1221.818Z" fill="#001937"/>
          <path id="Path_914" data-name="Path 914" d="M0,1483.635c49.7,0,90-39.071,90-87.271H0Z" fill="#001937"/>
          <path id="Path_915" data-name="Path 915" d="M180,1483.635c49.705,0,90-39.071,90-87.271H180Z" fill="#001937"/>
          <path id="Path_916" data-name="Path 916" d="M90,1396.364h90v-87.275C130.3,1309.089,90,1348.164,90,1396.364Z" fill="#001937"/>
          <path id="Path_917" data-name="Path 917" d="M0,1134.544c49.7,0,90-39.071,90-87.271H0Z" fill="#001937"/>
          <path id="Path_918" data-name="Path 918" d="M180,1134.544c49.705,0,90-39.071,90-87.271H180Z" fill="#001937"/>
          <path id="Path_919" data-name="Path 919" d="M270,1570.909h90v-87.274C310.3,1483.635,270,1522.71,270,1570.909Z" fill="#001937"/>
          <path id="Path_920" data-name="Path 920" d="M450,1570.909h90v-87.274C490.3,1483.635,450,1522.71,450,1570.909Z" fill="#001937"/>
          <path id="Path_921" data-name="Path 921" d="M630,1570.909h90v-87.274C670.3,1483.635,630,1522.71,630,1570.909Z" fill="#001937"/>
          <path id="Path_922" data-name="Path 922" d="M810,1570.909h90v-87.274C850.295,1483.635,810,1522.71,810,1570.909Z" fill="#001937"/>
          <path id="Path_923" data-name="Path 923" d="M990,1570.909h90v-87.274C1030.3,1483.635,990,1522.71,990,1570.909Z" fill="#001937"/>
          <path id="Path_924" data-name="Path 924" d="M360,1309.089c49.7,0,90-39.07,90-87.271H360Z" fill="#001937"/>
          <path id="Path_925" data-name="Path 925" d="M270,1221.818h90v-87.274C310.3,1134.544,270,1173.619,270,1221.818Z" fill="#001937"/>
          <path id="Path_926" data-name="Path 926" d="M540,1309.089c49.7,0,90-39.07,90-87.271H540Z" fill="#001937"/>
          <path id="Path_927" data-name="Path 927" d="M450,1221.818h90v-87.274C490.3,1134.544,450,1173.619,450,1221.818Z" fill="#001937"/>
          <path id="Path_928" data-name="Path 928" d="M360,1483.635c49.7,0,90-39.071,90-87.271H360Z" fill="#001937"/>
          <path id="Path_929" data-name="Path 929" d="M270,1396.364h90v-87.275C310.3,1309.089,270,1348.164,270,1396.364Z" fill="#001937"/>
          <path id="Path_930" data-name="Path 930" d="M540,1483.635c49.7,0,90-39.071,90-87.271H540Z" fill="#001937"/>
          <path id="Path_931" data-name="Path 931" d="M450,1396.364h90v-87.275C490.3,1309.089,450,1348.164,450,1396.364Z" fill="#001937"/>
          <path id="Path_932" data-name="Path 932" d="M360,1134.544c49.7,0,90-39.071,90-87.271H360Z" fill="#001937"/>
          <path id="Path_933" data-name="Path 933" d="M540,1134.544c49.7,0,90-39.071,90-87.271H540Z" fill="#001937"/>
          <path id="Path_934" data-name="Path 934" d="M720,1309.089c49.705,0,90-39.07,90-87.271H720Z" fill="#001937"/>
          <path id="Path_935" data-name="Path 935" d="M630,1221.818h90v-87.274C670.3,1134.544,630,1173.619,630,1221.818Z" fill="#001937"/>
          <path id="Path_936" data-name="Path 936" d="M900,1309.089c49.7,0,90-39.07,90-87.271H900Z" fill="#001937"/>
          <path id="Path_937" data-name="Path 937" d="M810,1221.818h90v-87.274C850.295,1134.544,810,1173.619,810,1221.818Z" fill="#001937"/>
          <path id="Path_938" data-name="Path 938" d="M720,1483.635c49.705,0,90-39.071,90-87.271H720Z" fill="#001937"/>
          <path id="Path_939" data-name="Path 939" d="M630,1396.364h90v-87.275C670.3,1309.089,630,1348.164,630,1396.364Z" fill="#001937"/>
          <path id="Path_940" data-name="Path 940" d="M900,1483.635c49.7,0,90-39.071,90-87.271H900Z" fill="#001937"/>
          <path id="Path_941" data-name="Path 941" d="M810,1396.364h90v-87.275C850.295,1309.089,810,1348.164,810,1396.364Z" fill="#001937"/>
          <path id="Path_942" data-name="Path 942" d="M720,1134.544c49.705,0,90-39.071,90-87.271H720Z" fill="#001937"/>
          <path id="Path_943" data-name="Path 943" d="M900,1134.544c49.7,0,90-39.071,90-87.271H900Z" fill="#001937"/>
          <path id="Path_944" data-name="Path 944" d="M990,1221.818h90v-87.274C1030.3,1134.544,990,1173.619,990,1221.818Z" fill="#001937"/>
          <path id="Path_945" data-name="Path 945" d="M990,1396.364h90v-87.275C1030.3,1309.089,990,1348.164,990,1396.364Z" fill="#001937"/>
        </g>
        <g id="Group_109" data-name="Group 109">
          <path id="Path_946" data-name="Path 946" d="M90,2094.545h90v-87.274C130.3,2007.271,90,2046.346,90,2094.545Z" fill="#001937"/>
          <path id="Path_947" data-name="Path 947" d="M0,1832.726c49.7,0,90-39.071,90-87.271H0Z" fill="#001937"/>
          <path id="Path_948" data-name="Path 948" d="M180,1832.726c49.705,0,90-39.071,90-87.271H180Z" fill="#001937"/>
          <path id="Path_949" data-name="Path 949" d="M90,1745.455h90V1658.18C130.3,1658.18,90,1697.255,90,1745.455Z" fill="#001937"/>
          <path id="Path_950" data-name="Path 950" d="M0,2007.271c49.7,0,90-39.071,90-87.271H0Z" fill="#001937"/>
          <path id="Path_951" data-name="Path 951" d="M180,2007.271c49.705,0,90-39.071,90-87.271H180Z" fill="#001937"/>
          <path id="Path_952" data-name="Path 952" d="M90,1920h90v-87.274C130.3,1832.726,90,1871.8,90,1920Z" fill="#001937"/>
          <path id="Path_953" data-name="Path 953" d="M0,1658.18c49.7,0,90-39.07,90-87.271H0Z" fill="#001937"/>
          <path id="Path_954" data-name="Path 954" d="M180,1658.18c49.705,0,90-39.07,90-87.271H180Z" fill="#001937"/>
          <path id="Path_955" data-name="Path 955" d="M270,2094.545h90v-87.274C310.3,2007.271,270,2046.346,270,2094.545Z" fill="#001937"/>
          <path id="Path_956" data-name="Path 956" d="M450,2094.545h90v-87.274C490.3,2007.271,450,2046.346,450,2094.545Z" fill="#001937"/>
          <path id="Path_957" data-name="Path 957" d="M630,2094.545h90v-87.274C670.3,2007.271,630,2046.346,630,2094.545Z" fill="#001937"/>
          <path id="Path_958" data-name="Path 958" d="M810,2094.545h90v-87.274C850.295,2007.271,810,2046.346,810,2094.545Z" fill="#001937"/>
          <path id="Path_959" data-name="Path 959" d="M990,2094.545h90v-87.274C1030.3,2007.271,990,2046.346,990,2094.545Z" fill="#001937"/>
          <path id="Path_960" data-name="Path 960" d="M360,1832.726c49.7,0,90-39.071,90-87.271H360Z" fill="#001937"/>
          <path id="Path_961" data-name="Path 961" d="M270,1745.455h90V1658.18C310.3,1658.18,270,1697.255,270,1745.455Z" fill="#001937"/>
          <path id="Path_962" data-name="Path 962" d="M540,1832.726c49.7,0,90-39.071,90-87.271H540Z" fill="#001937"/>
          <path id="Path_963" data-name="Path 963" d="M450,1745.455h90V1658.18C490.3,1658.18,450,1697.255,450,1745.455Z" fill="#001937"/>
          <path id="Path_964" data-name="Path 964" d="M360,2007.271c49.7,0,90-39.071,90-87.271H360Z" fill="#001937"/>
          <path id="Path_965" data-name="Path 965" d="M270,1920h90v-87.274C310.3,1832.726,270,1871.8,270,1920Z" fill="#001937"/>
          <path id="Path_966" data-name="Path 966" d="M540,2007.271c49.7,0,90-39.071,90-87.271H540Z" fill="#001937"/>
          <path id="Path_967" data-name="Path 967" d="M450,1920h90v-87.274C490.3,1832.726,450,1871.8,450,1920Z" fill="#001937"/>
          <path id="Path_968" data-name="Path 968" d="M360,1658.18c49.7,0,90-39.07,90-87.271H360Z" fill="#001937"/>
          <path id="Path_969" data-name="Path 969" d="M540,1658.18c49.7,0,90-39.07,90-87.271H540Z" fill="#001937"/>
          <path id="Path_970" data-name="Path 970" d="M720,1832.726c49.705,0,90-39.071,90-87.271H720Z" fill="#001937"/>
          <path id="Path_971" data-name="Path 971" d="M630,1745.455h90V1658.18C670.3,1658.18,630,1697.255,630,1745.455Z" fill="#001937"/>
          <path id="Path_972" data-name="Path 972" d="M900,1832.726c49.7,0,90-39.071,90-87.271H900Z" fill="#001937"/>
          <path id="Path_973" data-name="Path 973" d="M810,1745.455h90V1658.18C850.295,1658.18,810,1697.255,810,1745.455Z" fill="#001937"/>
          <path id="Path_974" data-name="Path 974" d="M720,2007.271c49.705,0,90-39.071,90-87.271H720Z" fill="#001937"/>
          <path id="Path_975" data-name="Path 975" d="M630,1920h90v-87.274C670.3,1832.726,630,1871.8,630,1920Z" fill="#001937"/>
          <path id="Path_976" data-name="Path 976" d="M900,2007.271c49.7,0,90-39.071,90-87.271H900Z" fill="#001937"/>
          <path id="Path_977" data-name="Path 977" d="M810,1920h90v-87.274C850.295,1832.726,810,1871.8,810,1920Z" fill="#001937"/>
          <path id="Path_978" data-name="Path 978" d="M720,1658.18c49.705,0,90-39.07,90-87.271H720Z" fill="#001937"/>
          <path id="Path_979" data-name="Path 979" d="M900,1658.18c49.7,0,90-39.07,90-87.271H900Z" fill="#001937"/>
          <path id="Path_980" data-name="Path 980" d="M990,1745.455h90V1658.18C1030.3,1658.18,990,1697.255,990,1745.455Z" fill="#001937"/>
          <path id="Path_981" data-name="Path 981" d="M990,1920h90v-87.274C1030.3,1832.726,990,1871.8,990,1920Z" fill="#001937"/>
        </g>
        <g id="Group_112" data-name="Group 112">
          <g id="Group_110" data-name="Group 110">
            <path id="Path_982" data-name="Path 982" d="M90,523.636h90V436.362C130.3,436.362,90,475.437,90,523.636Z" fill="#001937"/>
            <path id="Path_983" data-name="Path 983" d="M0,261.816c49.7,0,90-39.07,90-87.271H0Z" fill="#001937"/>
            <path id="Path_984" data-name="Path 984" d="M180,261.816c49.705,0,90-39.07,90-87.271H180Z" fill="#001937"/>
            <path id="Path_985" data-name="Path 985" d="M90,174.545h90V87.271C130.3,87.271,90,126.346,90,174.545Z" fill="#001937"/>
            <path id="Path_986" data-name="Path 986" d="M0,436.362c49.7,0,90-39.071,90-87.271H0Z" fill="#001937"/>
            <path id="Path_987" data-name="Path 987" d="M180,436.362c49.705,0,90-39.071,90-87.271H180Z" fill="#001937"/>
            <path id="Path_988" data-name="Path 988" d="M90,349.091h90V261.816C130.3,261.816,90,300.891,90,349.091Z" fill="#001937"/>
            <path id="Path_989" data-name="Path 989" d="M0,87.271C49.7,87.271,90,48.2,90,0H0Z" fill="#001937"/>
            <path id="Path_990" data-name="Path 990" d="M180,87.271c49.705,0,90-39.071,90-87.271H180Z" fill="#001937"/>
            <path id="Path_991" data-name="Path 991" d="M270,523.636h90V436.362C310.3,436.362,270,475.437,270,523.636Z" fill="#001937"/>
            <path id="Path_992" data-name="Path 992" d="M450,523.636h90V436.362C490.3,436.362,450,475.437,450,523.636Z" fill="#001937"/>
            <path id="Path_993" data-name="Path 993" d="M630,523.636h90V436.362C670.3,436.362,630,475.437,630,523.636Z" fill="#001937"/>
            <path id="Path_994" data-name="Path 994" d="M810,523.636h90V436.362C850.295,436.362,810,475.437,810,523.636Z" fill="#001937"/>
            <path id="Path_995" data-name="Path 995" d="M990,523.636h90V436.362C1030.3,436.362,990,475.437,990,523.636Z" fill="#001937"/>
            <path id="Path_996" data-name="Path 996" d="M360,261.816c49.7,0,90-39.07,90-87.271H360Z" fill="#001937"/>
            <path id="Path_997" data-name="Path 997" d="M270,174.545h90V87.271C310.3,87.271,270,126.346,270,174.545Z" fill="#001937"/>
            <path id="Path_998" data-name="Path 998" d="M540,261.816c49.7,0,90-39.07,90-87.271H540Z" fill="#001937"/>
            <path id="Path_999" data-name="Path 999" d="M450,174.545h90V87.271C490.3,87.271,450,126.346,450,174.545Z" fill="#001937"/>
            <path id="Path_1000" data-name="Path 1000" d="M360,436.362c49.7,0,90-39.071,90-87.271H360Z" fill="#001937"/>
            <path id="Path_1001" data-name="Path 1001" d="M270,349.091h90V261.816C310.3,261.816,270,300.891,270,349.091Z" fill="#001937"/>
            <path id="Path_1002" data-name="Path 1002" d="M540,436.362c49.7,0,90-39.071,90-87.271H540Z" fill="#001937"/>
            <path id="Path_1003" data-name="Path 1003" d="M450,349.091h90V261.816C490.3,261.816,450,300.891,450,349.091Z" fill="#001937"/>
            <path id="Path_1004" data-name="Path 1004" d="M360,87.271c49.7,0,90-39.071,90-87.271H360Z" fill="#001937"/>
            <path id="Path_1005" data-name="Path 1005" d="M540,87.271c49.7,0,90-39.071,90-87.271H540Z" fill="#001937"/>
            <path id="Path_1006" data-name="Path 1006" d="M720,261.816c49.705,0,90-39.07,90-87.271H720Z" fill="#001937"/>
            <path id="Path_1007" data-name="Path 1007" d="M630,174.545h90V87.271C670.3,87.271,630,126.346,630,174.545Z" fill="#001937"/>
            <path id="Path_1008" data-name="Path 1008" d="M900,261.816c49.7,0,90-39.07,90-87.271H900Z" fill="#001937"/>
            <path id="Path_1009" data-name="Path 1009" d="M810,174.545h90V87.271C850.295,87.271,810,126.346,810,174.545Z" fill="#001937"/>
            <path id="Path_1010" data-name="Path 1010" d="M720,436.362c49.705,0,90-39.071,90-87.271H720Z" fill="#001937"/>
            <path id="Path_1011" data-name="Path 1011" d="M630,349.091h90V261.816C670.3,261.816,630,300.891,630,349.091Z" fill="#001937"/>
            <path id="Path_1012" data-name="Path 1012" d="M900,436.362c49.7,0,90-39.071,90-87.271H900Z" fill="#001937"/>
            <path id="Path_1013" data-name="Path 1013" d="M810,349.091h90V261.816C850.295,261.816,810,300.891,810,349.091Z" fill="#001937"/>
            <path id="Path_1014" data-name="Path 1014" d="M720,87.271c49.705,0,90-39.071,90-87.271H720Z" fill="#001937"/>
            <path id="Path_1015" data-name="Path 1015" d="M900,87.271c49.7,0,90-39.071,90-87.271H900Z" fill="#001937"/>
            <path id="Path_1016" data-name="Path 1016" d="M990,174.545h90V87.271C1030.3,87.271,990,126.346,990,174.545Z" fill="#001937"/>
            <path id="Path_1017" data-name="Path 1017" d="M990,349.091h90V261.816C1030.3,261.816,990,300.891,990,349.091Z" fill="#001937"/>
          </g>
          <g id="Group_111" data-name="Group 111">
            <path id="Path_1018" data-name="Path 1018" d="M90,1047.273h90V960C130.3,960,90,999.073,90,1047.273Z" fill="#001937"/>
            <path id="Path_1019" data-name="Path 1019" d="M0,785.453c49.7,0,90-39.071,90-87.271H0Z" fill="#001937"/>
            <path id="Path_1020" data-name="Path 1020" d="M180,785.453c49.705,0,90-39.071,90-87.271H180Z" fill="#001937"/>
            <path id="Path_1021" data-name="Path 1021" d="M90,698.182h90V610.907C130.3,610.907,90,649.982,90,698.182Z" fill="#001937"/>
            <path id="Path_1022" data-name="Path 1022" d="M0,960c49.7,0,90-39.07,90-87.271H0Z" fill="#001937"/>
            <path id="Path_1023" data-name="Path 1023" d="M180,960c49.705,0,90-39.07,90-87.271H180Z" fill="#001937"/>
            <path id="Path_1024" data-name="Path 1024" d="M90,872.727h90V785.453C130.3,785.453,90,824.528,90,872.727Z" fill="#001937"/>
            <path id="Path_1025" data-name="Path 1025" d="M0,610.907c49.7,0,90-39.07,90-87.271H0Z" fill="#001937"/>
            <path id="Path_1026" data-name="Path 1026" d="M180,610.907c49.705,0,90-39.07,90-87.271H180Z" fill="#001937"/>
            <path id="Path_1027" data-name="Path 1027" d="M270,1047.273h90V960C310.3,960,270,999.073,270,1047.273Z" fill="#001937"/>
            <path id="Path_1028" data-name="Path 1028" d="M450,1047.273h90V960C490.3,960,450,999.073,450,1047.273Z" fill="#001937"/>
            <path id="Path_1029" data-name="Path 1029" d="M630,1047.273h90V960C670.3,960,630,999.073,630,1047.273Z" fill="#001937"/>
            <path id="Path_1030" data-name="Path 1030" d="M810,1047.273h90V960C850.295,960,810,999.073,810,1047.273Z" fill="#001937"/>
            <path id="Path_1031" data-name="Path 1031" d="M990,1047.273h90V960C1030.3,960,990,999.073,990,1047.273Z" fill="#001937"/>
            <path id="Path_1032" data-name="Path 1032" d="M360,785.453c49.7,0,90-39.071,90-87.271H360Z" fill="#001937"/>
            <path id="Path_1033" data-name="Path 1033" d="M270,698.182h90V610.907C310.3,610.907,270,649.982,270,698.182Z" fill="#001937"/>
            <path id="Path_1034" data-name="Path 1034" d="M540,785.453c49.7,0,90-39.071,90-87.271H540Z" fill="#001937"/>
            <path id="Path_1035" data-name="Path 1035" d="M450,698.182h90V610.907C490.3,610.907,450,649.982,450,698.182Z" fill="#001937"/>
            <path id="Path_1036" data-name="Path 1036" d="M360,960c49.7,0,90-39.07,90-87.271H360Z" fill="#001937"/>
            <path id="Path_1037" data-name="Path 1037" d="M270,872.727h90V785.453C310.3,785.453,270,824.528,270,872.727Z" fill="#001937"/>
            <path id="Path_1038" data-name="Path 1038" d="M540,960c49.7,0,90-39.07,90-87.271H540Z" fill="#001937"/>
            <path id="Path_1039" data-name="Path 1039" d="M450,872.727h90V785.453C490.3,785.453,450,824.528,450,872.727Z" fill="#001937"/>
            <path id="Path_1040" data-name="Path 1040" d="M360,610.907c49.7,0,90-39.07,90-87.271H360Z" fill="#001937"/>
            <path id="Path_1041" data-name="Path 1041" d="M540,610.907c49.7,0,90-39.07,90-87.271H540Z" fill="#001937"/>
            <path id="Path_1042" data-name="Path 1042" d="M720,785.453c49.705,0,90-39.071,90-87.271H720Z" fill="#001937"/>
            <path id="Path_1043" data-name="Path 1043" d="M630,698.182h90V610.907C670.3,610.907,630,649.982,630,698.182Z" fill="#001937"/>
            <path id="Path_1044" data-name="Path 1044" d="M900,785.453c49.7,0,90-39.071,90-87.271H900Z" fill="#001937"/>
            <path id="Path_1045" data-name="Path 1045" d="M810,698.182h90V610.907C850.295,610.907,810,649.982,810,698.182Z" fill="#001937"/>
            <path id="Path_1046" data-name="Path 1046" d="M720,960c49.705,0,90-39.07,90-87.271H720Z" fill="#001937"/>
            <path id="Path_1047" data-name="Path 1047" d="M630,872.727h90V785.453C670.3,785.453,630,824.528,630,872.727Z" fill="#001937"/>
            <path id="Path_1048" data-name="Path 1048" d="M900,960c49.7,0,90-39.07,90-87.271H900Z" fill="#001937"/>
            <path id="Path_1049" data-name="Path 1049" d="M810,872.727h90V785.453C850.295,785.453,810,824.528,810,872.727Z" fill="#001937"/>
            <path id="Path_1050" data-name="Path 1050" d="M720,610.907c49.705,0,90-39.07,90-87.271H720Z" fill="#001937"/>
            <path id="Path_1051" data-name="Path 1051" d="M900,610.907c49.7,0,90-39.07,90-87.271H900Z" fill="#001937"/>
            <path id="Path_1052" data-name="Path 1052" d="M990,698.182h90V610.907C1030.3,610.907,990,649.982,990,698.182Z" fill="#001937"/>
            <path id="Path_1053" data-name="Path 1053" d="M990,872.727h90V785.453C1030.3,785.453,990,824.528,990,872.727Z" fill="#001937"/>
          </g>
        </g>
      </g>
    </g>
  </g>
</svg>
