<svg xmlns="http://www.w3.org/2000/svg" width="425.196" height="66.177" viewBox="0 0 425.196 66.177">
  <g id="Group_125" data-name="Group 125" transform="translate(-327.402 -226.973)">
    <path id="Path_1059" data-name="Path 1059" d="M327.4,232.562l1.05.28c3.975,1.04,6.255,3.417,6.255,6.517V291.2h11.849V262.89h24.053v-7.677H346.556V235.389h28.816l-2.919-7.1H327.4Z" fill="#fff"/>
    <path id="Path_1060" data-name="Path 1060" d="M422.938,226.973c-14.69,0-30.388,8.566-30.388,32.606,0,20.468,11.36,32.691,30.388,32.691s30.389-12.223,30.389-32.691C453.327,235.539,437.63,226.973,422.938,226.973Zm17.718,32.606c0,15.97-6.625,25.506-17.718,25.506s-17.717-9.536-17.717-25.506c0-15.732,6.788-25.5,17.717-25.5S440.656,243.847,440.656,259.579Z" fill="#fff"/>
    <path id="Path_1061" data-name="Path 1061" d="M566.535,284.1V262.89h24.053v-7.677H566.535V235.389h28.816l-2.918-7.1H547.381v4.277l1.05.279c3.975,1.04,6.255,3.417,6.255,6.517V291.2h39.493l2.918-7.1Z" fill="#fff"/>
    <path id="Path_1062" data-name="Path 1062" d="M667.306,228.285v39.891l-35.435-34.383-.162-.137a23.611,23.611,0,0,0-6.148-4.173,17.107,17.107,0,0,0-6.288-1.2H617.4v4.277l1.05.279c3.975,1.04,6.255,3.417,6.255,6.517V291.2h7.677v-39.85l42.6,41.8V228.285Z" fill="#fff"/>
    <path id="Path_1063" data-name="Path 1063" d="M723.719,228.285H710.936v4.277l1.051.279c3.974,1.04,5.693,4.572,4.507,7.516h0L693.712,291.2h7.774l5.089-11.329h27.812l5.172,11.329H752.6Zm-14.476,45.644,11.063-24.63,11.312,24.63Z" fill="#fff"/>
    <path id="Path_1064" data-name="Path 1064" d="M508.4,263.561c7.681-2.619,13.7-8.072,13.7-16.216,0-8.232-4.045-14.228-11.391-16.874-6.048-2.186-15.416-2.186-20.234-2.186H472.331v4.277l1.051.279c3.974,1.04,6.254,3.417,6.254,6.517V291.2h11.851V265.008c1.424,0,2.977-.014,4.614-.059l18.955,26.035.157.218h13.674Zm-11.834-6.244h-5.075V235.651h7.2c1.115,0,10.9.3,10.9,10.835S497.679,257.317,496.564,257.317Z" fill="#fff"/>
  </g>
</svg>
